<svg id="Layer_1" enable-background="new 0 0 512.179 512.179" height="512" viewBox="0 0 512.179 512.179" width="512" xmlns="http://www.w3.org/2000/svg"><g><path d="m367.167 85.954c11.053 2.136 21.479-.524 30.155-7.686 8.68-7.163 13.268-16.896 13.268-28.15v-.822c0-17.425-11.906-32.11-28.954-35.712-85.702-18.11-165.489-18.111-251.098-.005-17.044 3.605-28.947 18.29-28.947 35.711v.828c0 11.253 4.587 20.987 13.266 28.15 6.733 5.558 14.518 8.403 22.831 8.403 2.401 0 4.849-.238 7.325-.716 75.784-14.638 146.376-14.639 222.154-.001z"/><path d="m275.089 422.178h-39c-24.813 0-45 20.187-45 45s20.187 45 45 45h39c24.813 0 45-20.187 45-45s-20.186-45-45-45z"/><path d="m67.089 143.179c0-19.688 7.067-37.752 18.788-51.804-6.867-8.585-11.386-18.616-13.272-29.498-21.831 20.283-35.516 49.222-35.516 81.302v17.979c9.38-4.576 19.447-7.951 30-9.932z"/><path d="m109.088 169.628c-6.36 0-11.782 3.965-13.964 9.552h-6.035c-49.075 0-89 39.925-89 89v33c0 49.075 39.925 89 89 89h6.035c2.182 5.587 7.604 9.551 13.964 9.551 8.284 0 15-6.716 15-15v-200.103c0-8.285-6.715-15-15-15z"/><path d="m445.09 151.226c10.553 1.981 20.62 5.356 30 9.932v-17.98c0-32.079-13.684-61.018-35.516-81.302-1.886 10.882-6.406 20.912-13.274 29.497 11.722 14.053 18.789 32.117 18.789 51.805v8.048z"/><path d="m423.089 179.179h-6.035c-2.182-5.587-7.604-9.552-13.964-9.552-8.284 0-15 6.716-15 15v200.103c0 8.284 6.716 15 15 15 6.36 0 11.782-3.964 13.964-9.551h6.035c49.075 0 89-39.925 89-89v-33c0-49.075-39.924-89-89-89z"/><path d="m374.09 452.179h-25.51c.988 4.848 1.509 9.864 1.509 15s-.521 10.152-1.509 15h25.51c45.62 0 84.266-30.406 96.754-72.014-11.55 5.081-24.052 8.376-37.161 9.538-12.664 19.523-34.638 32.476-59.593 32.476z"/></g></svg>