<svg id="Capa_1" enable-background="new 0 0 512 512" height="512" viewBox="0 0 512 512" width="512" xmlns="http://www.w3.org/2000/svg"><g><path d="m241 419.801v62.199h-90v30h210v-30h-90v-62.199c65.944-5.962 122.162-50.067 142.412-114.289l-28.623-9.023c-17.812 56.528-69.565 94.511-128.789 94.511s-110.977-37.983-128.789-94.512l-28.623 9.023c20.25 64.223 76.468 108.328 142.412 114.29z"/><path d="m361 181h-75v-30h75v-30h-75v-30h73.484c-7.357-50.75-50.729-91-103.484-91s-96.127 40.25-103.484 91h73.484v30h-75v30h75v30h-75v30h210z"/><path d="m256 361c57.891 0 105-47.109 105-105v-15h-210v15c0 57.891 47.109 105 105 105z"/></g></svg>