<?xml version="1.0" encoding="iso-8859-1"?>
<!-- Generator: Adobe Illustrator 19.0.0, SVG Export Plug-In . SVG Version: 6.00 Build 0)  -->
<svg version="1.1" id="Capa_1" xmlns="http://www.w3.org/2000/svg" xmlns:xlink="http://www.w3.org/1999/xlink" x="0px" y="0px"
	 viewBox="0 0 512.005 512.005" style="enable-background:new 0 0 512.005 512.005;" xml:space="preserve">
<g>
	<g>
		<path d="M440.878,64.609l-181.333-64c-2.292-0.813-4.792-0.813-7.083,0l-181.333,64c-4.271,1.51-7.125,5.542-7.125,10.063v128
			c0,165.646,24.563,226.188,187.188,308.188c1.521,0.76,3.167,1.146,4.813,1.146s3.292-0.385,4.813-1.146
			c162.625-82,187.188-142.542,187.188-308.188v-128C448.003,70.151,445.148,66.12,440.878,64.609z M380.878,167.547L231.544,316.88
			c-2.083,2.083-4.813,3.125-7.542,3.125s-5.458-1.042-7.542-3.125l-85.333-85.333c-4.167-4.167-4.167-10.917,0-15.083
			s10.917-4.167,15.083,0l77.792,77.792l141.792-141.792c4.167-4.167,10.917-4.167,15.083,0
			C385.044,156.63,385.044,163.38,380.878,167.547z"/>
	</g>
</g>
<g>
</g>
<g>
</g>
<g>
</g>
<g>
</g>
<g>
</g>
<g>
</g>
<g>
</g>
<g>
</g>
<g>
</g>
<g>
</g>
<g>
</g>
<g>
</g>
<g>
</g>
<g>
</g>
<g>
</g>
</svg>
