<svg id="Capa_1" enable-background="new 0 0 512 512" height="30px" viewBox="0 0 512 512" width="30px" xmlns="http://www.w3.org/2000/svg"><path d="m351.26 431.241-31.816-318.141 18.417-55.252c4.872-14.619 3.089-29.354-4.892-40.427-7.98-11.071-21.395-17.421-36.803-17.421h-80.332c-15.411 0-28.827 6.352-36.808 17.425-7.98 11.073-9.762 25.808-4.888 40.424l18.417 55.251-31.815 318.141c-.506 5.059 1.585 10.029 5.556 13.205l80.334 64.267c2.739 2.191 6.055 3.287 9.37 3.287s6.631-1.096 9.37-3.287l80.334-64.267c3.971-3.175 6.062-8.146 5.556-13.205zm-147.896-396.276c2.308-3.201 6.736-4.965 12.47-4.965h80.332c5.732 0 10.16 1.763 12.467 4.964 2.308 3.201 2.58 7.96.768 13.398l-16.013 48.038h-74.775l-16.014-48.04c-1.813-5.437-1.541-10.194.765-13.395zm52.636 442.826-64.597-51.678 29.973-299.713h69.248l29.973 299.713z"/></svg>